<mxfile host="app.diagrams.net" agent="Mozilla/5.0 (Windows NT 10.0; Win64; x64) AppleWebKit/537.36 (KHTML, like Gecko) Chrome/131.0.0.0 Safari/537.36 Edg/131.0.0.0" version="26.0.4">
  <diagram name="Page-1" id="adrPg1_WYuzvUSxwkKEx">
    <mxGraphModel dx="786" dy="463" grid="1" gridSize="10" guides="1" tooltips="1" connect="1" arrows="1" fold="1" page="1" pageScale="1" pageWidth="850" pageHeight="1100" math="0" shadow="0">
      <root>
        <mxCell id="0" />
        <mxCell id="1" parent="0" />
        <mxCell id="jjIT7vbTTJN8iQoVO9FF-12" value="" style="edgeStyle=orthogonalEdgeStyle;rounded=0;orthogonalLoop=1;jettySize=auto;html=1;" edge="1" parent="1" source="jjIT7vbTTJN8iQoVO9FF-1" target="jjIT7vbTTJN8iQoVO9FF-2">
          <mxGeometry relative="1" as="geometry" />
        </mxCell>
        <mxCell id="jjIT7vbTTJN8iQoVO9FF-1" value="Start" style="ellipse;whiteSpace=wrap;html=1;aspect=fixed;fillColor=#60a917;fontColor=#ffffff;strokeColor=#2D7600;" vertex="1" parent="1">
          <mxGeometry x="60" y="10" width="60" height="60" as="geometry" />
        </mxCell>
        <mxCell id="jjIT7vbTTJN8iQoVO9FF-13" value="" style="edgeStyle=orthogonalEdgeStyle;rounded=0;orthogonalLoop=1;jettySize=auto;html=1;" edge="1" parent="1" source="jjIT7vbTTJN8iQoVO9FF-2" target="jjIT7vbTTJN8iQoVO9FF-3">
          <mxGeometry relative="1" as="geometry" />
        </mxCell>
        <mxCell id="jjIT7vbTTJN8iQoVO9FF-2" value="Get User Udemy Account and Course Name" style="rounded=1;whiteSpace=wrap;html=1;fillColor=#a20025;fontColor=#ffffff;strokeColor=#6F0000;" vertex="1" parent="1">
          <mxGeometry x="230" y="10" width="120" height="60" as="geometry" />
        </mxCell>
        <mxCell id="jjIT7vbTTJN8iQoVO9FF-14" value="" style="edgeStyle=orthogonalEdgeStyle;rounded=0;orthogonalLoop=1;jettySize=auto;html=1;" edge="1" parent="1" source="jjIT7vbTTJN8iQoVO9FF-3" target="jjIT7vbTTJN8iQoVO9FF-10">
          <mxGeometry relative="1" as="geometry" />
        </mxCell>
        <mxCell id="jjIT7vbTTJN8iQoVO9FF-3" value="Open Udemy&amp;nbsp;" style="rounded=1;whiteSpace=wrap;html=1;fillColor=#d80073;fontColor=#ffffff;strokeColor=#A50040;" vertex="1" parent="1">
          <mxGeometry x="450" y="10" width="110" height="60" as="geometry" />
        </mxCell>
        <mxCell id="jjIT7vbTTJN8iQoVO9FF-16" value="" style="edgeStyle=orthogonalEdgeStyle;rounded=0;orthogonalLoop=1;jettySize=auto;html=1;" edge="1" parent="1" source="jjIT7vbTTJN8iQoVO9FF-6" target="jjIT7vbTTJN8iQoVO9FF-11">
          <mxGeometry relative="1" as="geometry" />
        </mxCell>
        <mxCell id="jjIT7vbTTJN8iQoVO9FF-6" value="Login&amp;nbsp;" style="rounded=1;whiteSpace=wrap;html=1;fillColor=#a0522d;fontColor=#ffffff;strokeColor=#6D1F00;" vertex="1" parent="1">
          <mxGeometry x="610" y="190" width="120" height="60" as="geometry" />
        </mxCell>
        <mxCell id="jjIT7vbTTJN8iQoVO9FF-18" value="" style="edgeStyle=orthogonalEdgeStyle;rounded=0;orthogonalLoop=1;jettySize=auto;html=1;" edge="1" parent="1" source="jjIT7vbTTJN8iQoVO9FF-7" target="jjIT7vbTTJN8iQoVO9FF-8">
          <mxGeometry relative="1" as="geometry" />
        </mxCell>
        <mxCell id="jjIT7vbTTJN8iQoVO9FF-7" value="Present Results &amp;amp; Ask if User Want to Do it again" style="rounded=1;whiteSpace=wrap;html=1;fillColor=#6d8764;fontColor=#ffffff;strokeColor=#3A5431;" vertex="1" parent="1">
          <mxGeometry x="230" y="190" width="120" height="60" as="geometry" />
        </mxCell>
        <mxCell id="jjIT7vbTTJN8iQoVO9FF-8" value="End" style="ellipse;whiteSpace=wrap;html=1;aspect=fixed;fillColor=#ffcd28;gradientColor=#ffa500;strokeColor=#d79b00;" vertex="1" parent="1">
          <mxGeometry x="60" y="190" width="60" height="60" as="geometry" />
        </mxCell>
        <mxCell id="jjIT7vbTTJN8iQoVO9FF-15" style="edgeStyle=orthogonalEdgeStyle;rounded=0;orthogonalLoop=1;jettySize=auto;html=1;" edge="1" parent="1" source="jjIT7vbTTJN8iQoVO9FF-10" target="jjIT7vbTTJN8iQoVO9FF-6">
          <mxGeometry relative="1" as="geometry" />
        </mxCell>
        <mxCell id="jjIT7vbTTJN8iQoVO9FF-10" value="Check if Not Log in &amp;amp; if User wants to Log in" style="rounded=1;whiteSpace=wrap;html=1;fillColor=#a0522d;fontColor=#ffffff;strokeColor=#6D1F00;" vertex="1" parent="1">
          <mxGeometry x="610" y="10" width="120" height="60" as="geometry" />
        </mxCell>
        <mxCell id="jjIT7vbTTJN8iQoVO9FF-17" value="" style="edgeStyle=orthogonalEdgeStyle;rounded=0;orthogonalLoop=1;jettySize=auto;html=1;" edge="1" parent="1" source="jjIT7vbTTJN8iQoVO9FF-11" target="jjIT7vbTTJN8iQoVO9FF-7">
          <mxGeometry relative="1" as="geometry" />
        </mxCell>
        <mxCell id="jjIT7vbTTJN8iQoVO9FF-11" value="Start Searching &amp;amp; Extract Courses info" style="rounded=1;whiteSpace=wrap;html=1;fillColor=#e51400;fontColor=#ffffff;strokeColor=#B20000;" vertex="1" parent="1">
          <mxGeometry x="450" y="190" width="120" height="60" as="geometry" />
        </mxCell>
      </root>
    </mxGraphModel>
  </diagram>
</mxfile>
